<svg width="104" height="34" viewBox="0 0 104 34" fill="none" xmlns="http://www.w3.org/2000/svg">
<path d="M23.7562 16.1724V11.0952M21.2176 13.6338H26.2948M19.4578 17.9894C18.6952 17.2268 18.093 16.3646 17.6513 15.4446C17.6133 15.3655 17.5943 15.3259 17.5797 15.2758C17.5279 15.0979 17.5651 14.8794 17.673 14.7287C17.7034 14.6863 17.7397 14.6501 17.8122 14.5775C18.0341 14.3556 18.145 14.2447 18.2176 14.1331C18.4911 13.7124 18.4911 13.1701 18.2176 12.7494C18.145 12.6378 18.0341 12.5269 17.8122 12.305L17.6885 12.1813C17.3513 11.8441 17.1826 11.6754 17.0015 11.5838C16.6413 11.4016 16.2159 11.4016 15.8557 11.5838C15.6746 11.6754 15.506 11.8441 15.1687 12.1813L15.0687 12.2814C14.7325 12.6175 14.5645 12.7856 14.4361 13.0141C14.2937 13.2676 14.1913 13.6614 14.1921 13.9522C14.1929 14.2143 14.2438 14.3934 14.3454 14.7516C14.8918 16.6767 15.9228 18.4933 17.4383 20.0088C18.9539 21.5244 20.7704 22.5553 22.6956 23.1017C23.0538 23.2034 23.2329 23.2543 23.495 23.255C23.7858 23.2559 24.1796 23.1535 24.4331 23.0111C24.6616 22.8827 24.8297 22.7146 25.1658 22.3785L25.2658 22.2785C25.6031 21.9412 25.7718 21.7726 25.8634 21.5914C26.0456 21.2312 26.0456 20.8059 25.8634 20.4457C25.7718 20.2646 25.6031 20.0959 25.2658 19.7586L25.1422 19.635C24.9203 19.4131 24.8094 19.3021 24.6978 19.2296C24.2771 18.9561 23.7347 18.9561 23.314 19.2296C23.2025 19.3021 23.0915 19.4131 22.8697 19.635C22.7971 19.7075 22.7609 19.7438 22.7185 19.7741C22.5678 19.882 22.3493 19.9193 22.1714 19.8674C22.1213 19.8528 22.0817 19.8338 22.0026 19.7958C21.0826 19.3541 20.2203 18.752 19.4578 17.9894Z" stroke="#3D4160" stroke-width="0.761575" stroke-linecap="round" stroke-linejoin="round"/>
<path d="M39.3901 13.6949C40.0227 13.6949 40.5523 13.7553 40.9788 13.8762C41.4124 13.997 41.7358 14.196 41.949 14.4732C42.1694 14.7505 42.2795 15.1201 42.2795 15.5821C42.2795 15.8806 42.2227 16.1472 42.1089 16.3818C42.0023 16.6092 41.8388 16.8011 41.6185 16.9575C41.4052 17.1068 41.1422 17.2098 40.8295 17.2667V17.32C41.1494 17.3698 41.4372 17.4622 41.6931 17.5972C41.9561 17.7323 42.1623 17.9242 42.3115 18.173C42.4608 18.4218 42.5354 18.7452 42.5354 19.1432C42.5354 19.6052 42.4288 19.9997 42.2156 20.3267C42.0023 20.6466 41.6967 20.8918 41.2986 21.0624C40.9077 21.2259 40.4386 21.3076 39.8912 21.3076H37.2151V13.6949H39.3901ZM39.582 16.9362C40.236 16.9362 40.6838 16.8331 40.9255 16.627C41.1671 16.4137 41.288 16.101 41.288 15.6887C41.288 15.2693 41.1387 14.9708 40.8402 14.7931C40.5487 14.6083 40.0796 14.5159 39.4328 14.5159H38.1746V16.9362H39.582ZM38.1746 17.7358V20.4973H39.71C40.3852 20.4973 40.8544 20.3658 41.1174 20.1028C41.3804 19.8398 41.5119 19.4951 41.5119 19.0686C41.5119 18.7985 41.4514 18.5639 41.3306 18.3649C41.2169 18.1659 41.0214 18.013 40.7442 17.9064C40.4741 17.7927 40.1045 17.7358 39.6353 17.7358H38.1746ZM48.9901 18.4395C48.9901 18.9158 48.9262 19.3387 48.7982 19.7083C48.6774 20.0708 48.4997 20.38 48.2651 20.6359C48.0376 20.8918 47.7569 21.0873 47.4228 21.2223C47.0958 21.3503 46.7298 21.4142 46.3246 21.4142C45.9479 21.4142 45.5996 21.3503 45.2797 21.2223C44.9599 21.0873 44.6827 20.8918 44.4481 20.6359C44.2135 20.38 44.0287 20.0708 43.8937 19.7083C43.7657 19.3387 43.7017 18.9158 43.7017 18.4395C43.7017 17.8069 43.8084 17.2738 44.0216 16.8402C44.2349 16.3995 44.5405 16.0654 44.9385 15.838C45.3366 15.6034 45.8093 15.4861 46.3566 15.4861C46.8755 15.4861 47.3304 15.6034 47.7213 15.838C48.1194 16.0654 48.4286 16.3995 48.6489 16.8402C48.8764 17.2738 48.9901 17.8069 48.9901 18.4395ZM44.672 18.4395C44.672 18.8873 44.7289 19.2783 44.8426 19.6124C44.9634 19.9393 45.1482 20.1917 45.397 20.3694C45.6458 20.5471 45.9621 20.6359 46.3459 20.6359C46.7298 20.6359 47.0461 20.5471 47.2949 20.3694C47.5436 20.1917 47.7249 19.9393 47.8386 19.6124C47.9595 19.2783 48.0199 18.8873 48.0199 18.4395C48.0199 17.9846 47.9595 17.5972 47.8386 17.2774C47.7178 16.9575 47.533 16.7123 47.2842 16.5417C47.0425 16.364 46.7262 16.2751 46.3353 16.2751C45.7524 16.2751 45.3295 16.467 45.0665 16.8509C44.8035 17.2347 44.672 17.7643 44.672 18.4395ZM55.4457 18.4395C55.4457 18.9158 55.3817 19.3387 55.2537 19.7083C55.1329 20.0708 54.9552 20.38 54.7206 20.6359C54.4932 20.8918 54.2124 21.0873 53.8783 21.2223C53.5514 21.3503 53.1853 21.4142 52.7801 21.4142C52.4034 21.4142 52.0551 21.3503 51.7353 21.2223C51.4154 21.0873 51.1382 20.8918 50.9036 20.6359C50.6691 20.38 50.4843 20.0708 50.3492 19.7083C50.2213 19.3387 50.1573 18.9158 50.1573 18.4395C50.1573 17.8069 50.2639 17.2738 50.4771 16.8402C50.6904 16.3995 50.996 16.0654 51.3941 15.838C51.7921 15.6034 52.2648 15.4861 52.8121 15.4861C53.331 15.4861 53.7859 15.6034 54.1769 15.838C54.5749 16.0654 54.8841 16.3995 55.1045 16.8402C55.3319 17.2738 55.4457 17.8069 55.4457 18.4395ZM51.1275 18.4395C51.1275 18.8873 51.1844 19.2783 51.2981 19.6124C51.419 19.9393 51.6038 20.1917 51.8526 20.3694C52.1013 20.5471 52.4176 20.6359 52.8015 20.6359C53.1853 20.6359 53.5016 20.5471 53.7504 20.3694C53.9992 20.1917 54.1804 19.9393 54.2942 19.6124C54.415 19.2783 54.4754 18.8873 54.4754 18.4395C54.4754 17.9846 54.415 17.5972 54.2942 17.2774C54.1733 16.9575 53.9885 16.7123 53.7397 16.5417C53.4981 16.364 53.1818 16.2751 52.7908 16.2751C52.208 16.2751 51.785 16.467 51.522 16.8509C51.259 17.2347 51.1275 17.7643 51.1275 18.4395ZM57.8603 17.4373C57.8603 17.551 57.8532 17.7003 57.839 17.8851C57.8318 18.0699 57.8247 18.2298 57.8176 18.3649H57.8603C57.9029 18.308 57.9669 18.2263 58.0522 18.1197C58.1375 18.013 58.2228 17.9064 58.3081 17.7998C58.4005 17.6861 58.4787 17.5937 58.5426 17.5226L60.3659 15.5928H61.4641L59.1504 18.0344L61.624 21.3076H60.4938L58.5107 18.6421L57.8603 19.2072V21.3076H56.9327V13.2045H57.8603V17.4373ZM67.5622 15.4968C68.2587 15.4968 68.7741 15.6496 69.1082 15.9553C69.4422 16.2609 69.6093 16.7478 69.6093 17.416V21.3076H68.9269L68.7456 20.4973H68.703C68.5395 20.7034 68.3689 20.8776 68.1912 21.0197C68.0206 21.1548 67.8216 21.2543 67.5941 21.3183C67.3738 21.3823 67.1037 21.4142 66.7838 21.4142C66.4426 21.4142 66.1334 21.3538 65.8562 21.233C65.5861 21.1121 65.3729 20.9273 65.2165 20.6786C65.0601 20.4227 64.9819 20.1028 64.9819 19.719C64.9819 19.1503 65.2058 18.7132 65.6537 18.4075C66.1015 18.0948 66.7909 17.9242 67.7221 17.8958L68.6923 17.8638V17.5226C68.6923 17.0464 68.5893 16.7158 68.3831 16.531C68.177 16.3462 67.8856 16.2538 67.5088 16.2538C67.2103 16.2538 66.926 16.3 66.6559 16.3924C66.3858 16.4777 66.1334 16.5772 65.8989 16.691L65.611 15.9873C65.8598 15.8522 66.1548 15.7385 66.496 15.6461C66.8371 15.5466 67.1925 15.4968 67.5622 15.4968ZM67.8394 18.5461C67.1286 18.5746 66.6346 18.6883 66.3573 18.8873C66.0872 19.0864 65.9522 19.3671 65.9522 19.7296C65.9522 20.0495 66.0481 20.2841 66.2401 20.4333C66.4391 20.5826 66.6914 20.6572 66.9971 20.6572C67.4804 20.6572 67.882 20.5257 68.2019 20.2627C68.5217 19.9926 68.6817 19.5804 68.6817 19.0259V18.5142L67.8394 18.5461ZM77.5345 14.4306C77.1293 14.4306 76.7633 14.5017 76.4363 14.6438C76.1093 14.7789 75.8321 14.9815 75.6047 15.2516C75.3772 15.5146 75.2031 15.838 75.0822 16.2218C74.9614 16.5985 74.901 17.025 74.901 17.5013C74.901 18.1268 74.9969 18.6705 75.1889 19.1326C75.3879 19.5946 75.6793 19.95 76.0631 20.1988C76.4541 20.4475 76.941 20.5719 77.5238 20.5719C77.8579 20.5719 78.1742 20.5435 78.4728 20.4866C78.7713 20.4298 79.0627 20.3587 79.347 20.2734V21.105C79.0627 21.2117 78.7677 21.2898 78.4621 21.3396C78.1636 21.3894 77.8046 21.4142 77.3852 21.4142C76.6105 21.4142 75.9636 21.2543 75.4447 20.9344C74.9259 20.6146 74.5349 20.1597 74.2719 19.5697C74.016 18.9797 73.8881 18.2867 73.8881 17.4906C73.8881 16.9149 73.9663 16.3889 74.1226 15.9126C74.2861 15.4364 74.5207 15.0241 74.8263 14.6758C75.1391 14.3275 75.5229 14.061 75.9778 13.8762C76.4328 13.6843 76.9552 13.5883 77.5452 13.5883C77.9361 13.5883 78.3128 13.6274 78.6753 13.7056C79.0379 13.7838 79.3613 13.8939 79.6456 14.0361L79.2618 14.8464C79.0272 14.7398 78.7642 14.6438 78.4728 14.5585C78.1884 14.4732 77.8757 14.4306 77.5345 14.4306ZM83.045 15.4968C83.7416 15.4968 84.2569 15.6496 84.591 15.9553C84.9251 16.2609 85.0921 16.7478 85.0921 17.416V21.3076H84.4098L84.2285 20.4973H84.1859C84.0224 20.7034 83.8518 20.8776 83.6741 21.0197C83.5035 21.1548 83.3045 21.2543 83.077 21.3183C82.8567 21.3823 82.5866 21.4142 82.2667 21.4142C81.9255 21.4142 81.6163 21.3538 81.3391 21.233C81.069 21.1121 80.8558 20.9273 80.6994 20.6786C80.543 20.4227 80.4648 20.1028 80.4648 19.719C80.4648 19.1503 80.6887 18.7132 81.1365 18.4075C81.5843 18.0948 82.2738 17.9242 83.205 17.8958L84.1752 17.8638V17.5226C84.1752 17.0464 84.0721 16.7158 83.866 16.531C83.6599 16.3462 83.3684 16.2538 82.9917 16.2538C82.6932 16.2538 82.4089 16.3 82.1388 16.3924C81.8686 16.4777 81.6163 16.5772 81.3817 16.691L81.0939 15.9873C81.3427 15.8522 81.6376 15.7385 81.9788 15.6461C82.32 15.5466 82.6754 15.4968 83.045 15.4968ZM83.3222 18.5461C82.6114 18.5746 82.1174 18.6883 81.8402 18.8873C81.5701 19.0864 81.4351 19.3671 81.4351 19.7296C81.4351 20.0495 81.531 20.2841 81.7229 20.4333C81.922 20.5826 82.1743 20.6572 82.4799 20.6572C82.9633 20.6572 83.3649 20.5257 83.6847 20.2627C84.0046 19.9926 84.1645 19.5804 84.1645 19.0259V18.5142L83.3222 18.5461ZM87.7955 21.3076H86.8572V13.2045H87.7955V21.3076ZM90.5443 21.3076H89.606V13.2045H90.5443V21.3076Z" fill="#3D4160"/>
</svg>
