<svg width="103" height="34" viewBox="0 0 103 34" fill="none" xmlns="http://www.w3.org/2000/svg">
<path d="M13.8804 13.6339L19.0622 17.2612C19.4818 17.5549 19.6916 17.7018 19.9198 17.7587C20.1214 17.8089 20.3322 17.8089 20.5338 17.7587C20.762 17.7018 20.9718 17.5549 21.3915 17.2612L26.5733 13.6339M16.9267 21.8843H23.527C24.5933 21.8843 25.1264 21.8843 25.5337 21.6768C25.892 21.4943 26.1832 21.203 26.3658 20.8447C26.5733 20.4375 26.5733 19.9043 26.5733 18.838V14.7763C26.5733 13.71 26.5733 13.1768 26.3658 12.7695C26.1832 12.4113 25.892 12.12 25.5337 11.9375C25.1264 11.73 24.5933 11.73 23.527 11.73H16.9267C15.8604 11.73 15.3272 11.73 14.9199 11.9375C14.5617 12.12 14.2704 12.4113 14.0879 12.7695C13.8804 13.1768 13.8804 13.71 13.8804 14.7763V18.838C13.8804 19.9043 13.8804 20.4375 14.0879 20.8447C14.2704 21.203 14.5617 21.4943 14.9199 21.6768C15.3272 21.8843 15.8604 21.8843 16.9267 21.8843Z" stroke="#3D4160" stroke-width="0.761575" stroke-linecap="round" stroke-linejoin="round"/>
<path d="M40.1262 14.4306C39.721 14.4306 39.355 14.5017 39.028 14.6438C38.701 14.7789 38.4238 14.9815 38.1964 15.2516C37.9689 15.5146 37.7948 15.838 37.6739 16.2218C37.5531 16.5985 37.4927 17.025 37.4927 17.5013C37.4927 18.1268 37.5886 18.6705 37.7805 19.1326C37.9796 19.5946 38.271 19.95 38.6548 20.1988C39.0458 20.4475 39.5327 20.5719 40.1155 20.5719C40.4496 20.5719 40.7659 20.5435 41.0645 20.4866C41.363 20.4298 41.6544 20.3587 41.9387 20.2734V21.105C41.6544 21.2117 41.3594 21.2898 41.0538 21.3396C40.7553 21.3894 40.3963 21.4142 39.9769 21.4142C39.2021 21.4142 38.5553 21.2543 38.0364 20.9344C37.5175 20.6146 37.1266 20.1597 36.8636 19.5697C36.6077 18.9797 36.4798 18.2867 36.4798 17.4906C36.4798 16.9149 36.558 16.3889 36.7143 15.9126C36.8778 15.4364 37.1124 15.0241 37.418 14.6758C37.7308 14.3275 38.1146 14.061 38.5695 13.8762C39.0244 13.6843 39.5469 13.5883 40.1369 13.5883C40.5278 13.5883 40.9045 13.6274 41.267 13.7056C41.6295 13.7838 41.953 13.8939 42.2373 14.0361L41.8534 14.8464C41.6189 14.7398 41.3559 14.6438 41.0645 14.5585C40.7801 14.4732 40.4674 14.4306 40.1262 14.4306ZM48.4408 18.4395C48.4408 18.9158 48.3769 19.3387 48.2489 19.7083C48.1281 20.0708 47.9504 20.38 47.7158 20.6359C47.4884 20.8918 47.2076 21.0873 46.8735 21.2223C46.5465 21.3503 46.1805 21.4142 45.7753 21.4142C45.3986 21.4142 45.0503 21.3503 44.7304 21.2223C44.4106 21.0873 44.1334 20.8918 43.8988 20.6359C43.6642 20.38 43.4794 20.0708 43.3444 19.7083C43.2164 19.3387 43.1525 18.9158 43.1525 18.4395C43.1525 17.8069 43.2591 17.2738 43.4723 16.8402C43.6856 16.3995 43.9912 16.0654 44.3893 15.838C44.7873 15.6034 45.26 15.4861 45.8073 15.4861C46.3262 15.4861 46.7811 15.6034 47.1721 15.838C47.5701 16.0654 47.8793 16.3995 48.0997 16.8402C48.3271 17.2738 48.4408 17.8069 48.4408 18.4395ZM44.1227 18.4395C44.1227 18.8873 44.1796 19.2783 44.2933 19.6124C44.4141 19.9393 44.5989 20.1917 44.8477 20.3694C45.0965 20.5471 45.4128 20.6359 45.7967 20.6359C46.1805 20.6359 46.4968 20.5471 46.7456 20.3694C46.9944 20.1917 47.1756 19.9393 47.2893 19.6124C47.4102 19.2783 47.4706 18.8873 47.4706 18.4395C47.4706 17.9846 47.4102 17.5972 47.2893 17.2774C47.1685 16.9575 46.9837 16.7123 46.7349 16.5417C46.4932 16.364 46.1769 16.2751 45.786 16.2751C45.2031 16.2751 44.7802 16.467 44.5172 16.8509C44.2542 17.2347 44.1227 17.7643 44.1227 18.4395ZM52.6787 15.4861C53.361 15.4861 53.8764 15.6532 54.2247 15.9873C54.573 16.3142 54.7471 16.8473 54.7471 17.5866V21.3076H53.8195V17.6505C53.8195 17.1885 53.7164 16.8438 53.5103 16.6163C53.3042 16.3889 52.9808 16.2751 52.5401 16.2751C51.9074 16.2751 51.4703 16.4528 51.2286 16.8082C50.987 17.1636 50.8661 17.6754 50.8661 18.3436V21.3076H49.9279V15.5928H50.6849L50.8235 16.3711H50.8768C51.0047 16.1721 51.1611 16.0086 51.3459 15.8806C51.5378 15.7456 51.7475 15.6461 51.975 15.5821C52.2024 15.5181 52.437 15.4861 52.6787 15.4861ZM58.4273 20.6466C58.5694 20.6466 58.7151 20.6359 58.8644 20.6146C59.0137 20.5862 59.1345 20.5577 59.2269 20.5293V21.2436C59.1274 21.2934 58.9852 21.3325 58.8004 21.3609C58.6156 21.3965 58.4379 21.4142 58.2673 21.4142C57.9688 21.4142 57.6916 21.3645 57.4357 21.265C57.1869 21.1583 56.9843 20.9771 56.828 20.7212C56.6716 20.4653 56.5934 20.1064 56.5934 19.6443V16.3178H55.7831V15.87L56.604 15.4968L56.9772 14.2813H57.5316V15.5928H59.1843V16.3178H57.5316V19.623C57.5316 19.9713 57.6134 20.2308 57.7769 20.4013C57.9475 20.5648 58.1643 20.6466 58.4273 20.6466ZM62.5356 15.4968C63.2322 15.4968 63.7476 15.6496 64.0816 15.9553C64.4157 16.2609 64.5828 16.7478 64.5828 17.416V21.3076H63.9004L63.7191 20.4973H63.6765C63.513 20.7034 63.3424 20.8776 63.1647 21.0197C62.9941 21.1548 62.7951 21.2543 62.5676 21.3183C62.3473 21.3823 62.0772 21.4142 61.7573 21.4142C61.4161 21.4142 61.1069 21.3538 60.8297 21.233C60.5596 21.1121 60.3464 20.9273 60.19 20.6786C60.0336 20.4227 59.9554 20.1028 59.9554 19.719C59.9554 19.1503 60.1793 18.7132 60.6271 18.4075C61.0749 18.0948 61.7644 17.9242 62.6956 17.8958L63.6658 17.8638V17.5226C63.6658 17.0464 63.5628 16.7158 63.3566 16.531C63.1505 16.3462 62.8591 16.2538 62.4823 16.2538C62.1838 16.2538 61.8995 16.3 61.6294 16.3924C61.3593 16.4777 61.1069 16.5772 60.8724 16.691L60.5845 15.9873C60.8333 15.8522 61.1283 15.7385 61.4694 15.6461C61.8106 15.5466 62.166 15.4968 62.5356 15.4968ZM62.8129 18.5461C62.1021 18.5746 61.608 18.6883 61.3308 18.8873C61.0607 19.0864 60.9257 19.3671 60.9257 19.7296C60.9257 20.0495 61.0216 20.2841 61.2136 20.4333C61.4126 20.5826 61.6649 20.6572 61.9706 20.6572C62.4539 20.6572 62.8555 20.5257 63.1754 20.2627C63.4952 19.9926 63.6552 19.5804 63.6552 19.0259V18.5142L62.8129 18.5461ZM68.6402 21.4142C68.1355 21.4142 67.6841 21.3112 67.2861 21.105C66.8951 20.8989 66.5859 20.579 66.3585 20.1455C66.1381 19.7119 66.028 19.1574 66.028 18.4822C66.028 17.7785 66.1452 17.2063 66.3798 16.7656C66.6144 16.3249 66.9307 16.0015 67.3287 15.7953C67.7339 15.5892 68.1924 15.4861 68.7041 15.4861C68.9956 15.4861 69.2763 15.5181 69.5464 15.5821C69.8165 15.639 70.0369 15.71 70.2075 15.7953L69.9196 16.5737C69.749 16.5097 69.55 16.4493 69.3225 16.3924C69.0951 16.3356 68.8818 16.3071 68.6828 16.3071C68.299 16.3071 67.9827 16.3889 67.7339 16.5523C67.4851 16.7158 67.3003 16.9575 67.1795 17.2774C67.0586 17.5972 66.9982 17.9953 66.9982 18.4715C66.9982 18.9264 67.0586 19.3138 67.1795 19.6337C67.3003 19.9535 67.4816 20.1952 67.7232 20.3587C67.9649 20.5222 68.267 20.6039 68.6295 20.6039C68.9423 20.6039 69.2159 20.5719 69.4505 20.508C69.6922 20.444 69.9125 20.3658 70.1115 20.2734V21.105C69.9196 21.2046 69.7064 21.2792 69.4718 21.3289C69.2443 21.3858 68.9671 21.4142 68.6402 21.4142ZM73.3791 20.6466C73.5213 20.6466 73.667 20.6359 73.8163 20.6146C73.9655 20.5862 74.0864 20.5577 74.1788 20.5293V21.2436C74.0793 21.2934 73.9371 21.3325 73.7523 21.3609C73.5675 21.3965 73.3898 21.4142 73.2192 21.4142C72.9206 21.4142 72.6434 21.3645 72.3875 21.265C72.1388 21.1583 71.9362 20.9771 71.7798 20.7212C71.6234 20.4653 71.5452 20.1064 71.5452 19.6443V16.3178H70.7349V15.87L71.5559 15.4968L71.9291 14.2813H72.4835V15.5928H74.1361V16.3178H72.4835V19.623C72.4835 19.9713 72.5652 20.2308 72.7287 20.4013C72.8993 20.5648 73.1161 20.6466 73.3791 20.6466ZM84.0102 18.6208C84.0102 19.1468 83.9035 19.623 83.6903 20.0495C83.4771 20.4689 83.1501 20.8029 82.7094 21.0517C82.2758 21.2934 81.7214 21.4142 81.0461 21.4142C80.1008 21.4142 79.3793 21.1583 78.8817 20.6466C78.3913 20.1277 78.146 19.4453 78.146 18.5995V13.6949H79.1056V18.6314C79.1056 19.2498 79.2691 19.7296 79.5961 20.0708C79.9302 20.412 80.4313 20.5826 81.0994 20.5826C81.5615 20.5826 81.9346 20.5009 82.2189 20.3374C82.5104 20.1668 82.7236 19.9358 82.8587 19.6443C82.9937 19.3458 83.0612 19.0046 83.0612 18.6208V13.6949H84.0102V18.6208ZM89.6125 19.7296C89.6125 20.0993 89.5201 20.4085 89.3353 20.6572C89.1505 20.906 88.8875 21.0944 88.5463 21.2223C88.2051 21.3503 87.7999 21.4142 87.3308 21.4142C86.9328 21.4142 86.588 21.3823 86.2966 21.3183C86.0123 21.2543 85.7599 21.1655 85.5396 21.0517V20.1988C85.767 20.3125 86.0407 20.4191 86.3606 20.5186C86.6875 20.611 87.0181 20.6572 87.3521 20.6572C87.8284 20.6572 88.1731 20.5826 88.3864 20.4333C88.5996 20.277 88.7062 20.0708 88.7062 19.8149C88.7062 19.6728 88.6671 19.5448 88.5889 19.4311C88.5107 19.3174 88.3686 19.2036 88.1625 19.0899C87.9634 18.9762 87.6756 18.8482 87.2988 18.7061C86.9292 18.5639 86.6129 18.4218 86.3499 18.2796C86.0869 18.1374 85.8843 17.9668 85.7422 17.7678C85.6 17.5688 85.5289 17.3129 85.5289 17.0002C85.5289 16.5168 85.7244 16.1436 86.1153 15.8806C86.5134 15.6176 87.0323 15.4861 87.672 15.4861C88.0203 15.4861 88.3437 15.5217 88.6422 15.5928C88.9479 15.6567 89.2322 15.7491 89.4952 15.87L89.1753 16.6163C89.019 16.5452 88.8519 16.4848 88.6742 16.4351C88.5036 16.3782 88.3295 16.3356 88.1518 16.3071C87.9741 16.2716 87.7928 16.2538 87.608 16.2538C87.2242 16.2538 86.9292 16.3178 86.7231 16.4457C86.524 16.5666 86.4245 16.7336 86.4245 16.9468C86.4245 17.1032 86.4707 17.2383 86.5631 17.352C86.6555 17.4586 86.8084 17.5652 87.0216 17.6719C87.242 17.7714 87.5334 17.8922 87.8959 18.0344C88.2584 18.1694 88.5676 18.308 88.8235 18.4502C89.0794 18.5923 89.2749 18.7665 89.4099 18.9726C89.545 19.1717 89.6125 19.424 89.6125 19.7296Z" fill="#3D4160"/>
</svg>
