<svg width="20" height="20" viewBox="0 0 20 20" fill="none" xmlns="http://www.w3.org/2000/svg">
<path d="M8.70959 16.646C10.4846 16.6456 12.2084 16.0514 13.6066 14.958L18.0026 19.354L19.4166 17.94L15.0206 13.544C16.1146 12.1457 16.7092 10.4214 16.7096 8.646C16.7096 4.235 13.1206 0.645996 8.70959 0.645996C4.29859 0.645996 0.709595 4.235 0.709595 8.646C0.709595 13.057 4.29859 16.646 8.70959 16.646ZM8.70959 2.646C12.0186 2.646 14.7096 5.337 14.7096 8.646C14.7096 11.955 12.0186 14.646 8.70959 14.646C5.40059 14.646 2.70959 11.955 2.70959 8.646C2.70959 5.337 5.40059 2.646 8.70959 2.646Z" fill="white"/>
</svg>
