<svg width="15" height="14" viewBox="0 0 15 14" fill="none" xmlns="http://www.w3.org/2000/svg">
<g id="akar-icons:instagram-fill" clip-path="url(#clip0_112_246)">
<g id="Group">
<path id="Vector" fill-rule="evenodd" clip-rule="evenodd" d="M5.06564 0.927136C5.71453 0.897263 5.92143 0.890625 7.57436 0.890625C9.2273 0.890625 9.43419 0.897816 10.0825 0.927136C10.7309 0.956455 11.1734 1.0599 11.5607 1.20982C11.9662 1.36305 12.334 1.60258 12.6383 1.91237C12.9481 2.21607 13.187 2.58339 13.3397 2.98943C13.4902 3.37667 13.5931 3.81922 13.623 4.46645C13.6528 5.11645 13.6595 5.32335 13.6595 6.97573C13.6595 8.62867 13.6523 8.83556 13.623 9.48445C13.5936 10.1317 13.4902 10.5742 13.3397 10.9615C13.187 11.3676 12.9477 11.7355 12.6383 12.0396C12.334 12.3494 11.9662 12.5884 11.5607 12.7411C11.1734 12.8916 10.7309 12.9945 10.0836 13.0243C9.43419 13.0542 9.2273 13.0608 7.57436 13.0608C5.92143 13.0608 5.71453 13.0536 5.06564 13.0243C4.41841 12.995 3.97585 12.8916 3.58862 12.7411C3.18253 12.5884 2.81461 12.349 2.51045 12.0396C2.20087 11.7358 1.9613 11.368 1.80845 10.962C1.65853 10.5748 1.55564 10.1322 1.52577 9.48501C1.4959 8.83501 1.48926 8.62811 1.48926 6.97573C1.48926 5.32279 1.49645 5.1159 1.52577 4.46756C1.55509 3.81922 1.65853 3.37667 1.80845 2.98943C1.96153 2.58344 2.20128 2.21569 2.511 1.91182C2.81473 1.60231 3.18228 1.36274 3.58807 1.20982C3.9753 1.0599 4.41785 0.957008 5.06509 0.927136H5.06564ZM10.0333 2.02245C9.3916 1.99314 9.19909 1.98705 7.57436 1.98705C5.94964 1.98705 5.75713 1.99314 5.11543 2.02245C4.52185 2.04956 4.1999 2.14858 3.98526 2.23211C3.70147 2.34275 3.49845 2.47386 3.28547 2.68684C3.08358 2.88325 2.92821 3.12236 2.83075 3.38662C2.74722 3.60126 2.64819 3.92322 2.62109 4.51679C2.59177 5.1585 2.58568 5.35101 2.58568 6.97573C2.58568 8.60045 2.59177 8.79296 2.62109 9.43467C2.64819 10.0282 2.74722 10.3502 2.83075 10.5648C2.92811 10.8287 3.08356 11.0682 3.28547 11.2646C3.48185 11.4665 3.72139 11.622 3.98526 11.7193C4.1999 11.8029 4.52185 11.9019 5.11543 11.929C5.75713 11.9583 5.94909 11.9644 7.57436 11.9644C9.19964 11.9644 9.3916 11.9583 10.0333 11.929C10.6269 11.9019 10.9488 11.8029 11.1635 11.7193C11.4473 11.6087 11.6503 11.4776 11.8633 11.2646C12.0652 11.0682 12.2206 10.8287 12.318 10.5648C12.4015 10.3502 12.5005 10.0282 12.5276 9.43467C12.557 8.79296 12.563 8.60045 12.563 6.97573C12.563 5.35101 12.557 5.1585 12.5276 4.51679C12.5005 3.92322 12.4015 3.60126 12.318 3.38662C12.2073 3.10284 12.0762 2.89982 11.8633 2.68684C11.6668 2.48496 11.4277 2.32959 11.1635 2.23211C10.9488 2.14858 10.6269 2.04956 10.0333 2.02245ZM6.79713 8.8516C7.2312 9.03229 7.71453 9.05668 8.16458 8.9206C8.61463 8.78452 9.00347 8.49641 9.2647 8.10548C9.52593 7.71456 9.64333 7.24506 9.59686 6.77719C9.55038 6.30932 9.34292 5.8721 9.0099 5.5402C8.7976 5.32804 8.54091 5.16558 8.25829 5.06454C7.97568 4.96349 7.67418 4.92636 7.37549 4.95582C7.0768 4.98528 6.78836 5.0806 6.53094 5.23491C6.27351 5.38922 6.0535 5.5987 5.88674 5.84824C5.71999 6.09779 5.61064 6.38121 5.56656 6.67809C5.52249 6.97497 5.54479 7.27794 5.63185 7.56517C5.71892 7.8524 5.86859 8.11675 6.07008 8.33919C6.27158 8.56164 6.51988 8.73664 6.79713 8.8516ZM5.3627 4.76407C5.65314 4.47363 5.99794 4.24324 6.37742 4.08606C6.7569 3.92887 7.16362 3.84797 7.57436 3.84797C7.98511 3.84797 8.39183 3.92887 8.77131 4.08606C9.15078 4.24324 9.49558 4.47363 9.78602 4.76407C10.0765 5.05451 10.3069 5.39931 10.464 5.77879C10.6212 6.15827 10.7021 6.56499 10.7021 6.97573C10.7021 7.38647 10.6212 7.79319 10.464 8.17267C10.3069 8.55215 10.0765 8.89695 9.78602 9.18739C9.19945 9.77396 8.4039 10.1035 7.57436 10.1035C6.74483 10.1035 5.94927 9.77396 5.3627 9.18739C4.77614 8.60082 4.4466 7.80526 4.4466 6.97573C4.4466 6.1462 4.77614 5.35064 5.3627 4.76407ZM11.3958 4.31377C11.4678 4.24588 11.5254 4.16424 11.5653 4.07367C11.6051 3.98311 11.6264 3.88548 11.6278 3.78654C11.6293 3.68761 11.6108 3.5894 11.5737 3.49771C11.5365 3.40603 11.4812 3.32274 11.4113 3.25277C11.3413 3.18281 11.258 3.1276 11.1663 3.0904C11.0747 3.0532 10.9764 3.03478 10.8775 3.03622C10.7786 3.03767 10.6809 3.05894 10.5904 3.0988C10.4998 3.13865 10.4182 3.19627 10.3503 3.26824C10.2182 3.40822 10.1459 3.59414 10.1488 3.78654C10.1516 3.97895 10.2292 4.16269 10.3653 4.29875C10.5014 4.43482 10.6851 4.5125 10.8775 4.5153C11.0699 4.51811 11.2558 4.44581 11.3958 4.31377Z" fill="white"/>
</g>
</g>
<defs>
<clipPath id="clip0_112_246">
<rect width="13.2766" height="13.2766" fill="white" transform="translate(0.936035 0.337402)"/>
</clipPath>
</defs>
</svg>
