<svg width="14" height="14" viewBox="0 0 14 14" fill="none" xmlns="http://www.w3.org/2000/svg">
<g id="cib:linkedin-in" clip-path="url(#clip0_112_794)">
<path id="Vector" d="M3.51559 11.9544H1.10713V4.1984H3.51559V11.9544ZM2.30991 3.14042C1.53987 3.14042 0.915039 2.50232 0.915039 1.73227C0.915039 1.36233 1.062 1.00754 1.32359 0.745951C1.58518 0.484362 1.93997 0.337402 2.30991 0.337402C2.67985 0.337402 3.03465 0.484362 3.29624 0.745951C3.55782 1.00754 3.70478 1.36233 3.70478 1.73227C3.70478 2.50232 3.07995 3.14042 2.30991 3.14042ZM12.5296 11.9544H10.1265V8.17889C10.1265 7.27899 10.1083 6.12517 8.87436 6.12517C7.62221 6.12517 7.43011 7.10266 7.43011 8.11417V11.9544H5.02415V4.1984H7.33386V5.25638H7.36746C7.68901 4.6469 8.4744 4.00382 9.64606 4.00382C12.0836 4.00382 12.5316 5.60904 12.5316 7.69388V11.9544H12.5296Z" fill="white"/>
</g>
<defs>
<clipPath id="clip0_112_794">
<rect width="13.2766" height="13.2766" fill="white" transform="translate(0.0849609 0.337402)"/>
</clipPath>
</defs>
</svg>
