<svg width="30" height="16" viewBox="0 0 30 16" fill="none" xmlns="http://www.w3.org/2000/svg">
<g clip-path="url(#clip0_1_1046)">
<g opacity="0.6">
<path d="M5.8138 1.81458C0.594683 11.0658 0.000427246 11.1677 0.000427246 12.6778C0.00127328 13.1142 0.089372 13.5462 0.259681 13.9491C0.42999 14.3519 0.679166 14.7176 0.992948 15.0254C1.30673 15.3331 1.67896 15.5768 2.08832 15.7425C2.49769 15.9081 2.93616 15.9925 3.37864 15.9909C5.67169 15.9909 5.90423 14.0795 8.9401 14.0795C9.43094 14.0734 9.9202 14.1356 10.3934 14.2642C10.1903 13.7659 10.0851 13.234 10.0834 12.6969V12.6268C9.70279 12.5708 9.31846 12.5431 8.93364 12.544C5.45854 12.544 4.98701 14.4554 3.37864 14.4554C3.14113 14.4562 2.90578 14.4109 2.68603 14.322C2.46627 14.2331 2.26641 14.1024 2.09787 13.9374C1.92933 13.7723 1.79539 13.5761 1.70372 13.36C1.61204 13.1439 1.56442 12.912 1.56358 12.6778C1.56358 11.8559 1.62171 12.2764 7.13796 2.57914C7.31904 2.26521 7.58119 2.00418 7.89773 1.8226C8.21427 1.64101 8.57392 1.54536 8.9401 1.54536C9.30628 1.54536 9.66593 1.64101 9.98247 1.8226C10.299 2.00418 10.5612 2.26521 10.7422 2.57914C11.6336 4.1465 12.3764 5.43989 13.0095 6.52302C13.2808 6.06428 13.5779 5.5482 13.9073 4.98115C13.3776 4.06367 12.7769 3.01877 12.1052 1.79547C11.7812 1.25604 11.3201 0.809415 10.7674 0.499811C10.2147 0.190207 9.58955 0.0283594 8.95394 0.0302905C8.31833 0.0322216 7.69424 0.197864 7.14348 0.510821C6.59271 0.823777 6.13436 1.27319 5.8138 1.81458Z" fill="#306CFE"/>
</g>
<path d="M23.2534 1.81428C22.9333 1.26645 22.4725 0.811467 21.9174 0.495115C21.3624 0.178764 20.7326 0.012207 20.0916 0.012207C19.4505 0.012207 18.8208 0.178764 18.2657 0.495115C17.7107 0.811467 17.2499 1.26645 16.9298 1.81428C11.7623 11.0655 11.1164 11.1674 11.1164 12.6456C11.1172 13.0821 11.2053 13.5141 11.3756 13.9169C11.546 14.3197 11.7951 14.6855 12.1089 14.9932C12.4227 15.301 12.7949 15.5446 13.2043 15.7103C13.6137 15.876 14.0521 15.9604 14.4946 15.9587C16.7877 15.9587 17.0202 14.0473 20.0561 14.0473C23.0919 14.0473 23.3309 15.9587 25.624 15.9587C26.5171 15.9604 27.3744 15.6125 28.0078 14.9913C28.6411 14.3702 28.9988 13.5266 29.0022 12.6456C29.0087 11.1674 28.4209 11.0655 23.2534 1.81428ZM25.6563 14.4551C24.1319 14.4551 23.5053 12.5437 20.0819 12.5437C16.6585 12.5437 16.1353 14.4551 14.5269 14.4551C14.2894 14.4559 14.054 14.4106 13.8343 14.3217C13.6145 14.2328 13.4147 14.1021 13.2461 13.9371C13.0776 13.772 12.9437 13.5758 12.852 13.3597C12.7603 13.1435 12.7127 12.9117 12.7118 12.6775C12.7118 11.8555 12.77 12.2761 18.2862 2.57884C18.4673 2.26491 18.7295 2.00388 19.046 1.82229C19.3625 1.64071 19.7222 1.54506 20.0884 1.54506C20.4545 1.54506 20.8142 1.64071 21.1307 1.82229C21.4473 2.00388 21.7094 2.26491 21.8905 2.57884C27.4068 12.2761 27.4713 11.8555 27.4713 12.6775C27.4697 12.9137 27.4206 13.1472 27.327 13.3646C27.2334 13.582 27.0972 13.779 26.926 13.9443C26.7549 14.1095 26.5524 14.2397 26.33 14.3274C26.1076 14.415 25.8699 14.4584 25.6304 14.4551H25.6563Z" fill="#306CFE"/>
</g>
<defs>
<clipPath id="clip0_1_1046">
<rect width="29.0087" height="15.9794" fill="white" transform="translate(0 0.0102539)"/>
</clipPath>
</defs>
</svg>
