<svg width="18" height="15" viewBox="0 0 18 15" fill="none" xmlns="http://www.w3.org/2000/svg">
<path id="Vector" d="M1.52708 2.5055C2.78938 1.17462 4.69948 0.5 7.20339 0.5H8.10311V2.96662L7.37974 3.1075C6.14713 3.34725 5.2897 3.81887 4.83084 4.511C4.59142 4.88386 4.45563 5.31079 4.43676 5.75H7.20339C7.44201 5.75 7.67086 5.84219 7.83959 6.00628C8.00832 6.17038 8.10311 6.39294 8.10311 6.625V12.75C8.10311 13.7151 7.29607 14.5 6.30368 14.5H0.905374C0.666755 14.5 0.437908 14.4078 0.269178 14.2437C0.100449 14.0796 0.00565727 13.8571 0.00565727 13.625V9.25L0.00835644 6.69588C0.000258987 6.59875 -0.170687 4.2975 1.52708 2.5055ZM16.2006 14.5H10.8023C10.5636 14.5 10.3348 14.4078 10.1661 14.2437C9.99734 14.0796 9.90254 13.8571 9.90254 13.625V9.25L9.90524 6.69588C9.89715 6.59875 9.7262 4.2975 11.424 2.5055C12.6863 1.17462 14.5964 0.5 17.1003 0.5H18V2.96662L17.2766 3.1075C16.044 3.34725 15.1866 3.81887 14.7277 4.511C14.4883 4.88386 14.3525 5.31079 14.3337 5.75H17.1003C17.3389 5.75 17.5678 5.84219 17.7365 6.00628C17.9052 6.17038 18 6.39294 18 6.625V12.75C18 13.7151 17.193 14.5 16.2006 14.5Z" fill="white"/>
</svg>
