<svg width="15" height="14" viewBox="0 0 15 14" fill="none" xmlns="http://www.w3.org/2000/svg">
<g id="bi:twitter" clip-path="url(#clip0_112_550)">
<g id="Group">
<path id="Vector" d="M4.95762 12.7844C9.96788 12.7844 12.7087 8.63296 12.7087 5.03916C12.7087 4.92299 12.7087 4.80516 12.7037 4.68899C13.2373 4.30271 13.6978 3.82447 14.0637 3.27669C13.5653 3.49646 13.0371 3.6413 12.4962 3.70652C13.0659 3.36601 13.4926 2.83024 13.6969 2.1988C13.1617 2.51588 12.5759 2.73847 11.9652 2.85682C11.5546 2.41954 11.0113 2.12985 10.4193 2.03264C9.82745 1.93542 9.22001 2.03609 8.69111 2.31906C8.16222 2.60203 7.7414 3.05151 7.49382 3.59787C7.24625 4.14422 7.18575 4.75697 7.32168 5.3412C6.2386 5.28689 5.17902 5.00552 4.21168 4.51535C3.24433 4.02517 2.39083 3.33713 1.70651 2.49586C1.35912 3.09586 1.2531 3.8056 1.40999 4.48093C1.56688 5.15627 1.97491 5.74658 2.55124 6.13199C2.11937 6.11731 1.69699 6.00134 1.31817 5.79343V5.83077C1.31892 6.45932 1.53666 7.06834 1.9346 7.55487C2.33254 8.04141 2.88626 8.37563 3.50217 8.50103C3.26839 8.56543 3.0269 8.59754 2.78441 8.59645C2.61346 8.59697 2.44285 8.58113 2.27492 8.54916C2.449 9.09023 2.78795 9.56329 3.24431 9.90211C3.70068 10.2409 4.25158 10.4285 4.81988 10.4386C3.85446 11.1968 2.66193 11.6081 1.43434 11.6061C1.21804 11.607 1.00188 11.5945 0.787109 11.5688C2.03305 12.3631 3.48002 12.7848 4.95762 12.7844Z" fill="white"/>
</g>
</g>
<defs>
<clipPath id="clip0_112_550">
<rect width="13.2766" height="13.2766" fill="white" transform="translate(0.787109 0.337402)"/>
</clipPath>
</defs>
</svg>
